# xmcd
#
# Track frame offsets:
#	150
#	21136
#	33509
#
# Disc length: 642 seconds
#
# Revision: 0
# Processed by: cddbd v1.5.1PL2 Copyright (c) Steve Scherf et al.
# Submitted via: audiograbber 1.83.01
#
DISCID=1b028003
DTITLE=Lucinda Williams - Righteously
DYEAR=2003
DGENRE=
TTITLE0=Righteously
TTITLE1=Buick Blues
TTITLE2=Hang Down Your Head
EXTD=
EXTT0=
EXTT1=
EXTT2=
PLAYORDER=
